<svg xmlns="http://www.w3.org/2000/svg" width="1600" height="900" viewBox="0 0 1600 900" fill="none">
<defs><linearGradient id="bg" x1="0" y1="0" x2="1" y2="1"><stop offset="0%" stop-color="#09090b"/><stop offset="55%" stop-color="#0f0f10"/><stop offset="100%" stop-color="#18181b"/></linearGradient>
<linearGradient id="ag" x1="0" y1="0" x2="1" y2="1"><stop offset="0%" stop-color="#f97316"/><stop offset="100%" stop-color="#fb923c"/></linearGradient>
<radialGradient id="glow" cx="0.84" cy="0.20" r="0.55"><stop offset="0%" stop-color="#f97316" stop-opacity="0.16"/><stop offset="100%" stop-color="#f97316" stop-opacity="0"/></radialGradient></defs>
<rect width="1600" height="900" fill="url(#bg)"/><circle cx="918" cy="0" r="2.4" fill="#f97316" opacity="0.022"/><circle cx="972" cy="0" r="2.4" fill="#f97316" opacity="0.035"/><circle cx="1026" cy="0" r="2.4" fill="#f97316" opacity="0.048"/><circle cx="1080" cy="0" r="2.4" fill="#f97316" opacity="0.061"/><circle cx="1134" cy="0" r="2.4" fill="#f97316" opacity="0.073"/><circle cx="1188" cy="0" r="2.4" fill="#f97316" opacity="0.084"/><circle cx="1242" cy="0" r="2.4" fill="#f97316" opacity="0.093"/><circle cx="1296" cy="0" r="2.4" fill="#f97316" opacity="0.098"/><circle cx="1350" cy="0" r="2.4" fill="#f97316" opacity="0.100"/><circle cx="1404" cy="0" r="2.4" fill="#f97316" opacity="0.097"/><circle cx="1458" cy="0" r="2.4" fill="#f97316" opacity="0.091"/><circle cx="1512" cy="0" r="2.4" fill="#f97316" opacity="0.082"/><circle cx="1566" cy="0" r="2.4" fill="#f97316" opacity="0.071"/><circle cx="864" cy="54" r="2.4" fill="#f97316" opacity="0.012"/><circle cx="918" cy="54" r="2.4" fill="#f97316" opacity="0.027"/><circle cx="972" cy="54" r="2.4" fill="#f97316" opacity="0.041"/><circle cx="1026" cy="54" r="2.4" fill="#f97316" opacity="0.055"/><circle cx="1080" cy="54" r="2.4" fill="#f97316" opacity="0.069"/><circle cx="1134" cy="54" r="2.4" fill="#f97316" opacity="0.082"/><circle cx="1188" cy="54" r="2.4" fill="#f97316" opacity="0.094"/><circle cx="1242" cy="54" r="2.4" fill="#f97316" opacity="0.105"/><circle cx="1296" cy="54" r="2.4" fill="#f97316" opacity="0.113"/><circle cx="1350" cy="54" r="2.4" fill="#f97316" opacity="0.115"/><circle cx="1404" cy="54" r="2.4" fill="#f97316" opacity="0.111"/><circle cx="1458" cy="54" r="2.4" fill="#f97316" opacity="0.103"/><circle cx="1512" cy="54" r="2.4" fill="#f97316" opacity="0.092"/><circle cx="1566" cy="54" r="2.4" fill="#f97316" opacity="0.079"/><circle cx="864" cy="108" r="2.4" fill="#f97316" opacity="0.015"/><circle cx="918" cy="108" r="2.4" fill="#f97316" opacity="0.030"/><circle cx="972" cy="108" r="2.4" fill="#f97316" opacity="0.045"/><circle cx="1026" cy="108" r="2.4" fill="#f97316" opacity="0.059"/><circle cx="1080" cy="108" r="2.4" fill="#f97316" opacity="0.074"/><circle cx="1134" cy="108" r="2.4" fill="#f97316" opacity="0.088"/><circle cx="1188" cy="108" r="2.4" fill="#f97316" opacity="0.102"/><circle cx="1242" cy="108" r="2.4" fill="#f97316" opacity="0.115"/><circle cx="1296" cy="108" r="2.4" fill="#f97316" opacity="0.126"/><circle cx="1350" cy="108" r="2.4" fill="#f97316" opacity="0.130"/><circle cx="1404" cy="108" r="2.4" fill="#f97316" opacity="0.124"/><circle cx="1458" cy="108" r="2.4" fill="#f97316" opacity="0.113"/><circle cx="1512" cy="108" r="2.4" fill="#f97316" opacity="0.099"/><circle cx="1566" cy="108" r="2.4" fill="#f97316" opacity="0.085"/><circle cx="864" cy="162" r="2.4" fill="#f97316" opacity="0.017"/><circle cx="918" cy="162" r="2.4" fill="#f97316" opacity="0.032"/><circle cx="972" cy="162" r="2.4" fill="#f97316" opacity="0.047"/><circle cx="1026" cy="162" r="2.4" fill="#f97316" opacity="0.062"/><circle cx="1080" cy="162" r="2.4" fill="#f97316" opacity="0.076"/><circle cx="1134" cy="162" r="2.4" fill="#f97316" opacity="0.091"/><circle cx="1188" cy="162" r="2.4" fill="#f97316" opacity="0.106"/><circle cx="1242" cy="162" r="2.4" fill="#f97316" opacity="0.121"/><circle cx="1296" cy="162" r="2.4" fill="#f97316" opacity="0.136"/><circle cx="1350" cy="162" r="2.4" fill="#f97316" opacity="0.145"/><circle cx="1404" cy="162" r="2.4" fill="#f97316" opacity="0.133"/><circle cx="1458" cy="162" r="2.4" fill="#f97316" opacity="0.118"/><circle cx="1512" cy="162" r="2.4" fill="#f97316" opacity="0.103"/><circle cx="1566" cy="162" r="2.4" fill="#f97316" opacity="0.088"/><circle cx="864" cy="216" r="2.4" fill="#f97316" opacity="0.016"/><circle cx="918" cy="216" r="2.4" fill="#f97316" opacity="0.031"/><circle cx="972" cy="216" r="2.4" fill="#f97316" opacity="0.046"/><circle cx="1026" cy="216" r="2.4" fill="#f97316" opacity="0.061"/><circle cx="1080" cy="216" r="2.4" fill="#f97316" opacity="0.076"/><circle cx="1134" cy="216" r="2.4" fill="#f97316" opacity="0.091"/><circle cx="1188" cy="216" r="2.4" fill="#f97316" opacity="0.106"/><circle cx="1242" cy="216" r="2.4" fill="#f97316" opacity="0.120"/><circle cx="1296" cy="216" r="2.4" fill="#f97316" opacity="0.133"/><circle cx="1350" cy="216" r="2.4" fill="#f97316" opacity="0.140"/><circle cx="1404" cy="216" r="2.4" fill="#f97316" opacity="0.131"/><circle cx="1458" cy="216" r="2.4" fill="#f97316" opacity="0.117"/><circle cx="1512" cy="216" r="2.4" fill="#f97316" opacity="0.102"/><circle cx="1566" cy="216" r="2.4" fill="#f97316" opacity="0.088"/><circle cx="864" cy="270" r="2.4" fill="#f97316" opacity="0.014"/><circle cx="918" cy="270" r="2.4" fill="#f97316" opacity="0.029"/><circle cx="972" cy="270" r="2.4" fill="#f97316" opacity="0.044"/><circle cx="1026" cy="270" r="2.4" fill="#f97316" opacity="0.058"/><circle cx="1080" cy="270" r="2.4" fill="#f97316" opacity="0.073"/><circle cx="1134" cy="270" r="2.4" fill="#f97316" opacity="0.087"/><circle cx="1188" cy="270" r="2.4" fill="#f97316" opacity="0.100"/><circle cx="1242" cy="270" r="2.4" fill="#f97316" opacity="0.112"/><circle cx="1296" cy="270" r="2.4" fill="#f97316" opacity="0.122"/><circle cx="1350" cy="270" r="2.4" fill="#f97316" opacity="0.125"/><circle cx="1404" cy="270" r="2.4" fill="#f97316" opacity="0.120"/><circle cx="1458" cy="270" r="2.4" fill="#f97316" opacity="0.110"/><circle cx="1512" cy="270" r="2.4" fill="#f97316" opacity="0.097"/><circle cx="1566" cy="270" r="2.4" fill="#f97316" opacity="0.083"/><circle cx="864" cy="324" r="2.4" fill="#f97316" opacity="0.011"/><circle cx="918" cy="324" r="2.4" fill="#f97316" opacity="0.025"/><circle cx="972" cy="324" r="2.4" fill="#f97316" opacity="0.039"/><circle cx="1026" cy="324" r="2.4" fill="#f97316" opacity="0.053"/><circle cx="1080" cy="324" r="2.4" fill="#f97316" opacity="0.066"/><circle cx="1134" cy="324" r="2.4" fill="#f97316" opacity="0.079"/><circle cx="1188" cy="324" r="2.4" fill="#f97316" opacity="0.091"/><circle cx="1242" cy="324" r="2.4" fill="#f97316" opacity="0.101"/><circle cx="1296" cy="324" r="2.4" fill="#f97316" opacity="0.108"/><circle cx="1350" cy="324" r="2.4" fill="#f97316" opacity="0.110"/><circle cx="1404" cy="324" r="2.4" fill="#f97316" opacity="0.107"/><circle cx="1458" cy="324" r="2.4" fill="#f97316" opacity="0.099"/><circle cx="1512" cy="324" r="2.4" fill="#f97316" opacity="0.089"/><circle cx="1566" cy="324" r="2.4" fill="#f97316" opacity="0.076"/><circle cx="918" cy="378" r="2.4" fill="#f97316" opacity="0.020"/><circle cx="972" cy="378" r="2.4" fill="#f97316" opacity="0.033"/><circle cx="1026" cy="378" r="2.4" fill="#f97316" opacity="0.046"/><circle cx="1080" cy="378" r="2.4" fill="#f97316" opacity="0.058"/><circle cx="1134" cy="378" r="2.4" fill="#f97316" opacity="0.070"/><circle cx="1188" cy="378" r="2.4" fill="#f97316" opacity="0.080"/><circle cx="1242" cy="378" r="2.4" fill="#f97316" opacity="0.088"/><circle cx="1296" cy="378" r="2.4" fill="#f97316" opacity="0.093"/><circle cx="1350" cy="378" r="2.4" fill="#f97316" opacity="0.095"/><circle cx="1404" cy="378" r="2.4" fill="#f97316" opacity="0.093"/><circle cx="1458" cy="378" r="2.4" fill="#f97316" opacity="0.087"/><circle cx="1512" cy="378" r="2.4" fill="#f97316" opacity="0.078"/><circle cx="1566" cy="378" r="2.4" fill="#f97316" opacity="0.067"/><circle cx="918" cy="432" r="2.4" fill="#f97316" opacity="0.013"/><circle cx="972" cy="432" r="2.4" fill="#f97316" opacity="0.025"/><circle cx="1026" cy="432" r="2.4" fill="#f97316" opacity="0.037"/><circle cx="1080" cy="432" r="2.4" fill="#f97316" opacity="0.049"/><circle cx="1134" cy="432" r="2.4" fill="#f97316" opacity="0.059"/><circle cx="1188" cy="432" r="2.4" fill="#f97316" opacity="0.068"/><circle cx="1242" cy="432" r="2.4" fill="#f97316" opacity="0.074"/><circle cx="1296" cy="432" r="2.4" fill="#f97316" opacity="0.079"/><circle cx="1350" cy="432" r="2.4" fill="#f97316" opacity="0.080"/><circle cx="1404" cy="432" r="2.4" fill="#f97316" opacity="0.078"/><circle cx="1458" cy="432" r="2.4" fill="#f97316" opacity="0.073"/><circle cx="1512" cy="432" r="2.4" fill="#f97316" opacity="0.066"/><circle cx="1566" cy="432" r="2.4" fill="#f97316" opacity="0.057"/><circle cx="972" cy="486" r="2.4" fill="#f97316" opacity="0.016"/><circle cx="1026" cy="486" r="2.4" fill="#f97316" opacity="0.027"/><circle cx="1080" cy="486" r="2.4" fill="#f97316" opacity="0.038"/><circle cx="1134" cy="486" r="2.4" fill="#f97316" opacity="0.047"/><circle cx="1188" cy="486" r="2.4" fill="#f97316" opacity="0.055"/><circle cx="1242" cy="486" r="2.4" fill="#f97316" opacity="0.060"/><circle cx="1296" cy="486" r="2.4" fill="#f97316" opacity="0.064"/><circle cx="1350" cy="486" r="2.4" fill="#f97316" opacity="0.065"/><circle cx="1404" cy="486" r="2.4" fill="#f97316" opacity="0.063"/><circle cx="1458" cy="486" r="2.4" fill="#f97316" opacity="0.059"/><circle cx="1512" cy="486" r="2.4" fill="#f97316" opacity="0.053"/><circle cx="1566" cy="486" r="2.4" fill="#f97316" opacity="0.045"/><circle cx="1026" cy="540" r="2.4" fill="#f97316" opacity="0.017"/><circle cx="1080" cy="540" r="2.4" fill="#f97316" opacity="0.026"/><circle cx="1134" cy="540" r="2.4" fill="#f97316" opacity="0.034"/><circle cx="1188" cy="540" r="2.4" fill="#f97316" opacity="0.041"/><circle cx="1242" cy="540" r="2.4" fill="#f97316" opacity="0.046"/><circle cx="1296" cy="540" r="2.4" fill="#f97316" opacity="0.049"/><circle cx="1350" cy="540" r="2.4" fill="#f97316" opacity="0.050"/><circle cx="1404" cy="540" r="2.4" fill="#f97316" opacity="0.049"/><circle cx="1458" cy="540" r="2.4" fill="#f97316" opacity="0.045"/><circle cx="1512" cy="540" r="2.4" fill="#f97316" opacity="0.040"/><circle cx="1566" cy="540" r="2.4" fill="#f97316" opacity="0.033"/><circle cx="1080" cy="594" r="2.4" fill="#f97316" opacity="0.014"/><circle cx="1134" cy="594" r="2.4" fill="#f97316" opacity="0.021"/><circle cx="1188" cy="594" r="2.4" fill="#f97316" opacity="0.027"/><circle cx="1242" cy="594" r="2.4" fill="#f97316" opacity="0.032"/><circle cx="1296" cy="594" r="2.4" fill="#f97316" opacity="0.034"/><circle cx="1350" cy="594" r="2.4" fill="#f97316" opacity="0.035"/><circle cx="1404" cy="594" r="2.4" fill="#f97316" opacity="0.034"/><circle cx="1458" cy="594" r="2.4" fill="#f97316" opacity="0.031"/><circle cx="1512" cy="594" r="2.4" fill="#f97316" opacity="0.026"/><circle cx="1566" cy="594" r="2.4" fill="#f97316" opacity="0.020"/><circle cx="1188" cy="648" r="2.4" fill="#f97316" opacity="0.013"/><circle cx="1242" cy="648" r="2.4" fill="#f97316" opacity="0.017"/><circle cx="1296" cy="648" r="2.4" fill="#f97316" opacity="0.019"/><circle cx="1350" cy="648" r="2.4" fill="#f97316" opacity="0.020"/><circle cx="1404" cy="648" r="2.4" fill="#f97316" opacity="0.019"/><circle cx="1458" cy="648" r="2.4" fill="#f97316" opacity="0.016"/><circle cx="1512" cy="648" r="2.4" fill="#f97316" opacity="0.012"/>
<rect width="1600" height="900" fill="url(#glow)"/>
<g transform="translate(96, 96)"><rect width="72" height="72" rx="16" fill="#18181b" stroke="url(#ag)" stroke-width="1.5"/><path d="M 18 56 L 18 16 L 36 45 L 54 16 L 54 56" stroke="url(#ag)" stroke-width="4.5" stroke-linecap="round" stroke-linejoin="round" fill="none"/></g>
<text x="96" y="286" font-family="monospace" font-size="24" letter-spacing="4" fill="#fb923c" font-weight="600">ENTERPRISE PRODUCTION · CRITICAL MASS</text>
<text x="88" y="390" font-family="Inter, Arial, sans-serif" font-size="76" font-weight="800" fill="#fafafa" letter-spacing="-3">Offer Creation Engine</text>
<text x="96" y="470" font-family="monospace" font-size="30" fill="#a1a1aa">300x faster campaign deployment</text>
<text x="96" y="804" font-family="monospace" font-size="22" fill="#71717a">findmashur.dev</text></svg>