<svg xmlns="http://www.w3.org/2000/svg" width="1600" height="900" viewBox="0 0 1600 900" fill="none">
<defs><linearGradient id="bg" x1="0" y1="0" x2="1" y2="1"><stop offset="0%" stop-color="#09090b"/><stop offset="55%" stop-color="#0f0f10"/><stop offset="100%" stop-color="#18181b"/></linearGradient>
<linearGradient id="ag" x1="0" y1="0" x2="1" y2="1"><stop offset="0%" stop-color="#f97316"/><stop offset="100%" stop-color="#fb923c"/></linearGradient>
<radialGradient id="glow" cx="0.84" cy="0.20" r="0.55"><stop offset="0%" stop-color="#f97316" stop-opacity="0.16"/><stop offset="100%" stop-color="#f97316" stop-opacity="0"/></radialGradient></defs>
<rect width="1600" height="900" fill="url(#bg)"/><line x1="1540" y1="0" x2="1840" y2="900" stroke="#f97316" stroke-width="1" opacity="0.100"/><line x1="1526" y1="0" x2="1826" y2="900" stroke="#f97316" stroke-width="1" opacity="0.098"/><line x1="1512" y1="0" x2="1812" y2="900" stroke="#f97316" stroke-width="1" opacity="0.097"/><line x1="1498" y1="0" x2="1798" y2="900" stroke="#f97316" stroke-width="1" opacity="0.095"/><line x1="1484" y1="0" x2="1784" y2="900" stroke="#f97316" stroke-width="1" opacity="0.093"/><line x1="1470" y1="0" x2="1770" y2="900" stroke="#f97316" stroke-width="1" opacity="0.092"/><line x1="1456" y1="0" x2="1756" y2="900" stroke="#f97316" stroke-width="1" opacity="0.090"/><line x1="1442" y1="0" x2="1742" y2="900" stroke="#f97316" stroke-width="1" opacity="0.088"/><line x1="1428" y1="0" x2="1728" y2="900" stroke="#f97316" stroke-width="1" opacity="0.086"/><line x1="1414" y1="0" x2="1714" y2="900" stroke="#f97316" stroke-width="1" opacity="0.085"/><line x1="1400" y1="0" x2="1700" y2="900" stroke="#f97316" stroke-width="1" opacity="0.083"/><line x1="1386" y1="0" x2="1686" y2="900" stroke="#f97316" stroke-width="1" opacity="0.081"/><line x1="1372" y1="0" x2="1672" y2="900" stroke="#f97316" stroke-width="1" opacity="0.080"/><line x1="1358" y1="0" x2="1658" y2="900" stroke="#f97316" stroke-width="1" opacity="0.078"/><line x1="1344" y1="0" x2="1644" y2="900" stroke="#f97316" stroke-width="1" opacity="0.076"/><line x1="1330" y1="0" x2="1630" y2="900" stroke="#f97316" stroke-width="1" opacity="0.075"/><line x1="1316" y1="0" x2="1616" y2="900" stroke="#f97316" stroke-width="1" opacity="0.073"/><line x1="1302" y1="0" x2="1602" y2="900" stroke="#f97316" stroke-width="1" opacity="0.071"/><line x1="1288" y1="0" x2="1588" y2="900" stroke="#f97316" stroke-width="1" opacity="0.069"/><line x1="1274" y1="0" x2="1574" y2="900" stroke="#f97316" stroke-width="1" opacity="0.068"/><line x1="1260" y1="0" x2="1560" y2="900" stroke="#f97316" stroke-width="1" opacity="0.066"/><line x1="1246" y1="0" x2="1546" y2="900" stroke="#f97316" stroke-width="1" opacity="0.064"/><line x1="1232" y1="0" x2="1532" y2="900" stroke="#f97316" stroke-width="1" opacity="0.063"/><line x1="1218" y1="0" x2="1518" y2="900" stroke="#f97316" stroke-width="1" opacity="0.061"/><line x1="1204" y1="0" x2="1504" y2="900" stroke="#f97316" stroke-width="1" opacity="0.059"/><line x1="1190" y1="0" x2="1490" y2="900" stroke="#f97316" stroke-width="1" opacity="0.058"/><line x1="1176" y1="0" x2="1476" y2="900" stroke="#f97316" stroke-width="1" opacity="0.056"/><line x1="1162" y1="0" x2="1462" y2="900" stroke="#f97316" stroke-width="1" opacity="0.054"/><line x1="1148" y1="0" x2="1448" y2="900" stroke="#f97316" stroke-width="1" opacity="0.052"/><line x1="1134" y1="0" x2="1434" y2="900" stroke="#f97316" stroke-width="1" opacity="0.051"/><line x1="1120" y1="0" x2="1420" y2="900" stroke="#f97316" stroke-width="1" opacity="0.049"/><line x1="1106" y1="0" x2="1406" y2="900" stroke="#f97316" stroke-width="1" opacity="0.047"/><line x1="1092" y1="0" x2="1392" y2="900" stroke="#f97316" stroke-width="1" opacity="0.046"/><line x1="1078" y1="0" x2="1378" y2="900" stroke="#f97316" stroke-width="1" opacity="0.044"/><line x1="1064" y1="0" x2="1364" y2="900" stroke="#f97316" stroke-width="1" opacity="0.042"/><line x1="1050" y1="0" x2="1350" y2="900" stroke="#f97316" stroke-width="1" opacity="0.041"/><line x1="1036" y1="0" x2="1336" y2="900" stroke="#f97316" stroke-width="1" opacity="0.039"/><line x1="1022" y1="0" x2="1322" y2="900" stroke="#f97316" stroke-width="1" opacity="0.037"/><line x1="1008" y1="0" x2="1308" y2="900" stroke="#f97316" stroke-width="1" opacity="0.035"/><line x1="994" y1="0" x2="1294" y2="900" stroke="#f97316" stroke-width="1" opacity="0.034"/><line x1="980" y1="0" x2="1280" y2="900" stroke="#f97316" stroke-width="1" opacity="0.032"/><line x1="966" y1="0" x2="1266" y2="900" stroke="#f97316" stroke-width="1" opacity="0.030"/><line x1="952" y1="0" x2="1252" y2="900" stroke="#f97316" stroke-width="1" opacity="0.029"/><line x1="938" y1="0" x2="1238" y2="900" stroke="#f97316" stroke-width="1" opacity="0.027"/><line x1="924" y1="0" x2="1224" y2="900" stroke="#f97316" stroke-width="1" opacity="0.025"/><line x1="910" y1="0" x2="1210" y2="900" stroke="#f97316" stroke-width="1" opacity="0.024"/><line x1="896" y1="0" x2="1196" y2="900" stroke="#f97316" stroke-width="1" opacity="0.022"/><line x1="882" y1="0" x2="1182" y2="900" stroke="#f97316" stroke-width="1" opacity="0.020"/><line x1="868" y1="0" x2="1168" y2="900" stroke="#f97316" stroke-width="1" opacity="0.018"/><line x1="854" y1="0" x2="1154" y2="900" stroke="#f97316" stroke-width="1" opacity="0.017"/><line x1="840" y1="0" x2="1140" y2="900" stroke="#f97316" stroke-width="1" opacity="0.015"/><line x1="826" y1="0" x2="1126" y2="900" stroke="#f97316" stroke-width="1" opacity="0.013"/><line x1="812" y1="0" x2="1112" y2="900" stroke="#f97316" stroke-width="1" opacity="0.012"/><line x1="798" y1="0" x2="1098" y2="900" stroke="#f97316" stroke-width="1" opacity="0.010"/><line x1="784" y1="0" x2="1084" y2="900" stroke="#f97316" stroke-width="1" opacity="0.008"/><line x1="770" y1="0" x2="1070" y2="900" stroke="#f97316" stroke-width="1" opacity="0.007"/>
<rect width="1600" height="900" fill="url(#glow)"/>
<g transform="translate(96, 96)"><rect width="72" height="72" rx="16" fill="#18181b" stroke="url(#ag)" stroke-width="1.5"/><path d="M 18 56 L 18 16 L 36 45 L 54 16 L 54 56" stroke="url(#ag)" stroke-width="4.5" stroke-linecap="round" stroke-linejoin="round" fill="none"/></g>
<text x="96" y="286" font-family="monospace" font-size="24" letter-spacing="4" fill="#fb923c" font-weight="600">META ENGAGEMENT (VIA CAPGEMINI)</text>
<text x="88" y="390" font-family="Inter, Arial, sans-serif" font-size="64" font-weight="800" fill="#fafafa" letter-spacing="-3">Resource &amp; Telemetry</text>
<text x="96" y="470" font-family="monospace" font-size="30" fill="#a1a1aa">Visualization &amp; observability dashboard</text>
<text x="96" y="804" font-family="monospace" font-size="22" fill="#71717a">findmashur.dev</text></svg>